<svg width="20" height="19" viewBox="0 0 20 19" fill="none" xmlns="http://www.w3.org/2000/svg">
<path fill-rule="evenodd" clip-rule="evenodd" d="M6 2C3.79086 2 2 3.79086 2 6C2 7.30853 2.62727 8.47028 3.60175 9.20168L3.65845 9.24424L3.70858 9.29436L10 15.5858L16.2914 9.29436L16.3415 9.24424L16.3982 9.20168C17.3727 8.47028 18 7.30853 18 6C18 3.79086 16.2091 2 14 2C12.6922 2 11.531 2.6266 10.7995 3.60019L10 4.66431L9.20051 3.60019C8.46903 2.6266 7.30783 2 6 2ZM0 6C0 2.68629 2.68629 0 6 0C7.53707 0 8.93917 0.578626 10 1.52791C11.0608 0.578624 12.4629 0 14 0C17.3137 0 20 2.68629 20 6C20 7.93777 19.0804 9.66102 17.6578 10.7564L10.7071 17.7071L10 18.4142L9.29289 17.7071L2.3422 10.7564C0.919631 9.66102 0 7.93777 0 6Z" fill="#15B742"/>
</svg>
