<svg width="24" height="22" viewBox="0 0 24 22" fill="none" xmlns="http://www.w3.org/2000/svg">
<path d="M10.2186 1.49072C10.9609 0.0362163 13.0391 0.0362171 13.7814 1.49072L15.7343 5.31737C16.0249 5.88681 16.5702 6.28301 17.2016 6.38343L21.4444 7.05821C23.0571 7.3147 23.6993 9.29128 22.5454 10.4467L19.5095 13.4865C19.0577 13.9388 18.8495 14.5799 18.9491 15.2114L19.6184 19.4551C19.8728 21.0681 18.1914 22.2897 16.736 21.5493L12.9068 19.6013C12.337 19.3115 11.663 19.3115 11.0932 19.6013L7.26401 21.5493C5.80855 22.2897 4.12718 21.0681 4.38159 19.4551L5.05094 15.2114C5.15054 14.5799 4.94225 13.9388 4.49048 13.4865L1.45459 10.4467C0.300651 9.29128 0.942882 7.3147 2.55557 7.05821L6.79841 6.38343C7.42978 6.28301 7.9751 5.88681 8.2657 5.31737L10.2186 1.49072Z" fill="#FAD656"/>
</svg>
