<svg width="22" height="22" viewBox="0 0 22 22" fill="none" xmlns="http://www.w3.org/2000/svg">
<path fill-rule="evenodd" clip-rule="evenodd" d="M0 3C0 1.34315 1.34315 0 3 0H7.08333C8.74019 0 10.0833 1.34315 10.0833 3V7C10.0833 8.65685 8.74019 10 7.08333 10H3C1.34314 10 0 8.65685 0 7V3ZM1.83333 4C1.83333 2.89543 2.72876 2 3.83333 2H6.25C7.35457 2 8.25 2.89543 8.25 4V6C8.25 7.10457 7.35457 8 6.25 8H3.83333C2.72876 8 1.83333 7.10457 1.83333 6V4ZM0 15C0 13.3431 1.34315 12 3 12H7.08333C8.74019 12 10.0833 13.3431 10.0833 15V19C10.0833 20.6569 8.74019 22 7.08333 22H3C1.34314 22 0 20.6569 0 19V15ZM1.83333 16C1.83333 14.8954 2.72876 14 3.83333 14H6.25C7.35457 14 8.25 14.8954 8.25 16V18C8.25 19.1046 7.35457 20 6.25 20H3.83333C2.72876 20 1.83333 19.1046 1.83333 18V16ZM14.9167 0C13.2598 0 11.9167 1.34315 11.9167 3V7C11.9167 8.65685 13.2598 10 14.9167 10H19C20.6569 10 22 8.65685 22 7V3C22 1.34315 20.6569 0 19 0H14.9167ZM15.75 2C14.6454 2 13.75 2.89543 13.75 4V6C13.75 7.10457 14.6454 8 15.75 8H18.1667C19.2712 8 20.1667 7.10457 20.1667 6V4C20.1667 2.89543 19.2712 2 18.1667 2H15.75ZM11.9167 15C11.9167 13.3431 13.2598 12 14.9167 12H19C20.6569 12 22 13.3431 22 15V19C22 20.6569 20.6569 22 19 22H14.9167C13.2598 22 11.9167 20.6569 11.9167 19V15ZM13.75 16C13.75 14.8954 14.6454 14 15.75 14H18.1667C19.2712 14 20.1667 14.8954 20.1667 16V18C20.1667 19.1046 19.2712 20 18.1667 20H15.75C14.6454 20 13.75 19.1046 13.75 18V16Z" fill="#D9D9D9"/>
</svg>
