<svg width="21" height="22" viewBox="0 0 21 22" fill="none" xmlns="http://www.w3.org/2000/svg">
<path fill-rule="evenodd" clip-rule="evenodd" d="M15.4074 5.70374C15.4074 8.85376 12.8538 11.4073 9.7037 11.4073C6.55363 11.4073 4 8.85376 4 5.70374C4 2.55359 6.55363 0 9.7037 0C12.8538 0 15.4074 2.55359 15.4074 5.70374ZM13.7778 5.70374C13.7778 7.95374 11.9538 9.77783 9.7037 9.77783C7.45365 9.77783 5.62963 7.95374 5.62963 5.70374C5.62963 3.45361 7.45365 1.62964 9.7037 1.62964C11.9538 1.62964 13.7778 3.45361 13.7778 5.70374ZM10.1795 13.037C4.70073 13.037 0.231934 17.0138 0 22H1.36108C1.60276 17.9142 5.45848 14.6666 10.1795 14.6666C14.9005 14.6666 18.7562 17.9142 18.9979 22H20.359C20.1271 17.0138 15.6583 13.037 10.1795 13.037Z" fill="#D9D9D9"/>
</svg>
