<svg width="16" height="21" viewBox="0 0 16 21" fill="none" xmlns="http://www.w3.org/2000/svg">
<path d="M12 3H4.00003V5H12V3Z" fill="#15B742"/>
<path d="M12 7H4.00003V9H12V7Z" fill="#15B742"/>
<path d="M4.00003 11H10V13H4.00003V11Z" fill="#15B742"/>
<path fill-rule="evenodd" clip-rule="evenodd" d="M4.00488 0C1.79574 0 0.00487713 1.79086 0.00487713 4V16C0.00487713 16.1111 0.0037689 16.2296 0.00260899 16.3536C-0.00388541 17.0482 -0.0119998 17.9161 0.163724 18.6151C0.274281 19.0549 0.481049 19.5458 0.898394 19.9257C1.33577 20.3238 1.89339 20.5 2.50487 20.5C3.1411 20.5 3.67361 20.3004 4.08005 19.9233C4.25185 19.7639 4.38421 19.5877 4.48775 19.4158C4.52673 19.5091 4.57169 19.6024 4.62377 19.691C4.73306 19.877 4.89752 20.0877 5.14642 20.2503C5.40541 20.4195 5.70018 20.5 6.00488 20.5C6.6491 20.5 7.10733 20.1819 7.40286 19.8197C7.64201 19.5266 7.80166 19.1685 7.9008 18.9462L7.91758 18.9086C7.95096 18.8341 7.97969 18.7711 8.00488 18.7175C8.03006 18.7711 8.0588 18.8341 8.09218 18.9086L8.10896 18.9462C8.20809 19.1685 8.36775 19.5266 8.6069 19.8197C8.90243 20.1819 9.36066 20.5 10.0049 20.5C10.6525 20.5 11.0976 20.1508 11.3694 19.8254C11.6042 19.5444 11.777 19.2002 11.8905 18.9741L11.9072 18.9409C11.9298 18.896 11.9507 18.8547 11.9701 18.8168L12.0626 18.9862C12.1918 19.223 12.3853 19.576 12.6482 19.8642C12.9301 20.1732 13.3766 20.5 14.0049 20.5C14.6278 20.5 15.101 20.1852 15.3992 19.7638C15.663 19.3911 15.7904 18.9422 15.8628 18.5553C16.0051 17.7951 16.005 16.8439 16.0049 16.058L16.0049 4C16.0049 1.79086 14.214 0 12.0049 0H4.00488ZM2.00488 4C2.00488 2.89543 2.90031 2 4.00488 2H12.0049C13.1094 2 14.0049 2.89543 14.0049 4V16C14.0049 16.8534 14.0012 17.6185 13.8994 18.1743C13.8744 18.1302 13.8475 18.0817 13.8183 18.0283L13.7785 17.9549C13.6643 17.7438 13.5022 17.4441 13.3121 17.2024C13.0955 16.927 12.6809 16.5155 12.0281 16.5003C11.3722 16.485 10.9224 16.839 10.6525 17.1633C10.4229 17.4393 10.2521 17.7799 10.1399 18.0035L10.1206 18.042C10.0745 18.1335 10.0354 18.21 10.0011 18.2744C9.97682 18.2226 9.94929 18.1622 9.91758 18.0914L9.9008 18.0538C9.80166 17.8315 9.642 17.4734 9.40286 17.1803C9.10733 16.8181 8.6491 16.5 8.00488 16.5C7.36066 16.5 6.90243 16.8181 6.6069 17.1803C6.39438 17.4408 6.24464 17.7525 6.14436 17.9747C6.08663 17.7702 6.00244 17.5199 5.87519 17.3008C5.76783 17.1159 5.6035 16.9023 5.35074 16.7392C5.08657 16.5687 4.78707 16.4932 4.48163 16.5003C3.74071 16.5175 3.35707 17.0319 3.18666 17.3633C3.10476 17.5226 3.0446 17.6873 3.0016 17.8095C2.98399 17.8596 2.96909 17.9029 2.9554 17.9428C2.92965 18.0177 2.90817 18.0802 2.88101 18.1515C2.8014 18.3607 2.74733 18.4315 2.71973 18.4571C2.71218 18.4641 2.70449 18.47 2.68644 18.4767C2.66583 18.4843 2.6116 18.5 2.50487 18.5C2.39015 18.5 2.32489 18.4841 2.29309 18.473C2.26439 18.463 2.25232 18.4536 2.24462 18.4466C2.22539 18.4291 2.16071 18.3556 2.10338 18.1275C1.99611 17.7008 1.99924 17.1491 2.00324 16.442C2.00404 16.301 2.00488 16.1536 2.00488 16V4Z" fill="#15B742"/>
</svg>
